<svg xmlns="http://www.w3.org/2000/svg" width="589.317" height="169.409" viewBox="0 0 589.317 169.409">
  <path id="Ayubowan.svg" d="M13.767,420.665a110.473,110.473,0,0,1,3.9-13.434,112.682,112.682,0,0,1,5.1-12.523q2.974-6.225,6.373-12.525H54.061a8.5,8.5,0,0,1,5.24,1.494q-1.56,9.5-2.2,18.436t-.637,17.6v3.7q0,1.743.142,3.56a6.115,6.115,0,0,0,2.2,1.956,22.537,22.537,0,0,0,4.249,2.026,46.755,46.755,0,0,0,5.1,1.536,20.154,20.154,0,0,0,4.6.628h1.133a1.281,1.281,0,0,0,.566-.14q-.285-3.548-.283-6.81v-6.385q0-8.938.5-16.174t1.2-12.911a289.222,289.222,0,0,1,7.506-39.232q4.531-16.386,9.206-24.616-.285-.99-2.762-2.483a52.521,52.521,0,0,0-5.665-2.908,54.274,54.274,0,0,0-6.515-2.412,19.784,19.784,0,0,0-5.311-.993q0,.285-.071,1c-.047.477-.12,1.044-.212,1.707a73.956,73.956,0,0,0-12.18,8.471A128.869,128.869,0,0,0,47.12,341.616q-6.373,7.047-12.676,15.445a201.254,201.254,0,0,0-11.826,17.651,55.094,55.094,0,0,0-10.481,2.7q-3.967,1.566-4.815,3.7h11.33q-4.392,7.815-7.86,14.636T4.845,408.18a92.1,92.1,0,0,0-3.753,9.734,23.418,23.418,0,0,0-1.275,6.394,6.024,6.024,0,0,0,2.62,4.974q2.619,1.986,9.418,3.977a87.786,87.786,0,0,1,1.912-12.594Zm49.854-60.589q-1.348,5.913-2.478,11.892-15.157,0-27.051,1.2,4.388-7.1,9.135-13.43t9.348-11.37a75.912,75.912,0,0,1,8.923-8.455,29.164,29.164,0,0,1,7.861-4.691q-.71,3.847-1.487,7.336t-1.345,5.482q-1.563,6.124-2.906,12.036Zm88.023,22.107q3.824-8.938,8.215-18.3a7.181,7.181,0,0,0-2.2-1.632,22.138,22.138,0,0,0-3.47-1.419,37.567,37.567,0,0,0-4.107-1.064,20.241,20.241,0,0,0-3.965-.426q-3.4,5.678-6.374,11.067t-5.736,10.5q-2.762,5.107-5.594,10.144T122.185,401.2a63.452,63.452,0,0,1-9.631,11.7q-4.248,3.76-6.8,4.185a4.693,4.693,0,0,1-.637-.851,3.252,3.252,0,0,1-.354-1.7,23.655,23.655,0,0,1,.708-4.965q.707-3.12,1.628-6.385t1.912-6.243q.99-2.979,1.7-4.54,6.374-15.18,11.614-23.268t6.8-9.506a10.16,10.16,0,0,0-2.974-2.057,29.223,29.223,0,0,0-3.541-1.348,20.986,20.986,0,0,0-3.541-.78,23.523,23.523,0,0,0-2.832-.213,39.04,39.04,0,0,0-8.427,9.009,98.849,98.849,0,0,0-7.365,12.344,123.127,123.127,0,0,0-5.807,13.407,110.558,110.558,0,0,0-3.753,12.2,46.33,46.33,0,0,0-.991,5.462,60.534,60.534,0,0,0-.283,6.6,10.4,10.4,0,0,0,2.266,4.569,17.8,17.8,0,0,0,3.9,3.427,19.238,19.238,0,0,0,4.674,2.215,15.8,15.8,0,0,0,4.744.784,19.551,19.551,0,0,0,6.728-4.387,72.02,72.02,0,0,0,6.727-7.287q3.256-4.031,5.949-8.136t4.532-6.934a168.745,168.745,0,0,1-9.631,27.737,103.7,103.7,0,0,1-12.534,21.14,56.8,56.8,0,0,1-14.588,13.479,29.787,29.787,0,0,1-15.792,4.753,24.218,24.218,0,0,1-2.762-.142,6.405,6.405,0,0,1-2.266-.709,17.427,17.427,0,0,1-2.2-1.419q-1.132-.852-2.833-2.412a3.6,3.6,0,0,0-1.983,2.979,11.088,11.088,0,0,0,3.328,3.76,26.916,26.916,0,0,0,5.382,3.121,35.214,35.214,0,0,0,6.515,2.129,31.981,31.981,0,0,0,7.011.78,29.8,29.8,0,0,0,13.879-3.618,52.328,52.328,0,0,0,13.455-10.428,102.99,102.99,0,0,0,9.348-11.421,111.324,111.324,0,0,0,7.931-13.195,157.9,157.9,0,0,0,6.94-15.678q3.257-8.513,6.515-18.87,2.98-9.366,6.8-18.3Zm51.341,39.3q1.911.995,3.824,1.774a30.9,30.9,0,0,0,3.47,1.206,10.1,10.1,0,0,0,2.549.426.418.418,0,0,0,.283-.142.815.815,0,0,0,.284-.426,3.955,3.955,0,0,0-.5-1.7,26.78,26.78,0,0,1-1.062-2.483,27.421,27.421,0,0,1-1.063-3.689,23.7,23.7,0,0,1-.5-5.179,37.492,37.492,0,0,1,1.841-11.35,102.46,102.46,0,0,1,4.532-11.7q2.69-5.886,5.807-11.989t5.665-12.343A7.411,7.411,0,0,0,226,362.249a20.29,20.29,0,0,0-3.329-1.419,33.67,33.67,0,0,0-4.036-1.064,20.254,20.254,0,0,0-3.966-.426,29.093,29.093,0,0,0-4.178,4.9,55.625,55.625,0,0,0-3.116,5.179,48.617,48.617,0,0,0-2.266,4.9q-.923,2.34-1.487,4.043a41.215,41.215,0,0,1-2.9,6.243q-1.773,3.123-3.754,6.03t-3.894,5.462q-1.912,2.555-3.329,4.54-5.808,7.948-9.064,11.776T175.3,417.1a4.694,4.694,0,0,1-.637-.851,3.252,3.252,0,0,1-.354-1.7,26.259,26.259,0,0,1,.637-4.965q.637-3.12,1.629-6.385t1.983-6.243a48.189,48.189,0,0,1,1.7-4.54q6.374-15.18,11.543-23.268a113.255,113.255,0,0,1,6.444-9.506,8.668,8.668,0,0,0-2.762-2.057,27.072,27.072,0,0,0-3.4-1.348,19.328,19.328,0,0,0-3.47-.78,24.3,24.3,0,0,0-2.974-.213,37.478,37.478,0,0,0-8.569,9.009,93.1,93.1,0,0,0-7.293,12.344A132.182,132.182,0,0,0,164.039,390a110.6,110.6,0,0,0-3.753,12.2,37.308,37.308,0,0,0-.92,5.533q-.213,2.554-.213,6.527a10.786,10.786,0,0,0,2.2,4.569,16.392,16.392,0,0,0,3.824,3.427,19.222,19.222,0,0,0,4.673,2.215,15.8,15.8,0,0,0,4.745.784,6.877,6.877,0,0,0,2.62-1.272,22.2,22.2,0,0,0,3.47-3.113q1.132-1.413,3.4-4.382t4.6-6.081q2.337-3.112,4.32-5.376t2.549-2.264a16.243,16.243,0,0,0-.708,5.108,22.775,22.775,0,0,0,.921,5.817,11,11,0,0,0,3.611,5.675,37.462,37.462,0,0,0,3.607,2.117Zm41.213,3.406a11.2,11.2,0,0,0,2.407,1.347,16.469,16.469,0,0,0,3.258.994,17.739,17.739,0,0,0,3.47.354,16.439,16.439,0,0,0,8.427-2.7,47.462,47.462,0,0,0,8.922-7.165,71.313,71.313,0,0,0,8.5-10.428A102.035,102.035,0,0,0,286.4,394.81a79.813,79.813,0,0,0,5.1-13.265,51.1,51.1,0,0,0,2.054-12.7,15,15,0,0,0-1.417-4.894,21.866,21.866,0,0,0-2.832-4.4,17.776,17.776,0,0,0-3.824-3.476,14.1,14.1,0,0,0-4.391-1.986q-2.975,0-7.435,3.121a60.476,60.476,0,0,0-9.348,8.371,125.482,125.482,0,0,0-9.843,12.131,128.126,128.126,0,0,0-8.923,14.259q7.224-26.955,18.624-46.749t26.981-32.42a15.421,15.421,0,0,0-2.62-2.27q-1.773-1.276-3.753-2.554a43.082,43.082,0,0,0-3.966-2.27,22.357,22.357,0,0,0-3.4-1.419q-4.535,1.989-9.631,8.088a102.748,102.748,0,0,0-10.126,14.9A218.385,218.385,0,0,0,239.8,368.138a205,205,0,0,0-5.594,21.424,96.093,96.093,0,0,0-2.125,18.87,8.775,8.775,0,0,0,.567,3.688,6.238,6.238,0,0,0,.991,1.348,12.059,12.059,0,0,0,1.417,1.348,15.9,15.9,0,0,1,2.266,1.916,5.148,5.148,0,0,1,.991,1.489q.989,2.839,2.408,2.838a31.316,31.316,0,0,1,2.761-9.293q2.476-5.746,6.02-12.344t7.86-13.265q4.318-6.667,8.5-12.06a95.178,95.178,0,0,1,7.648-8.868q3.469-3.474,5.453-3.476a2.259,2.259,0,0,1,1.841,2.27,75.66,75.66,0,0,1-4.815,16.6,105.359,105.359,0,0,1-8.64,16.671,110.3,110.3,0,0,1-11.33,14.9,70.886,70.886,0,0,1-12.747,11.28,1.911,1.911,0,0,0,.924,1.415Zm85.259-3.76a48.174,48.174,0,0,0,12.322-11,51.5,51.5,0,0,0,8.072-14.542,49.412,49.412,0,0,0,2.9-16.955q0-13.335-7.507-13.337a10.547,10.547,0,0,0-1.274.071,10.035,10.035,0,0,1-1.275.071q-4.392-7.66-8.923-10.073-6.8,0-14.587,5.817a53.641,53.641,0,0,0-9.206,8.8,66.46,66.46,0,0,0-7.365,10.854,56.73,56.73,0,0,0-4.816,11.847,43.837,43.837,0,0,0-1.7,11.776q0,9.649,4.815,15.89a17.979,17.979,0,0,0,12.889,7.094,48.864,48.864,0,0,0,15.655-6.313Zm0-47.033a30.511,30.511,0,0,1,11.118-5.959,10.779,10.779,0,0,1,1.416,3.689,31.2,31.2,0,0,1,.425,5.817,54.993,54.993,0,0,1-2.2,15.748,48.361,48.361,0,0,1-6.09,13.2,38.476,38.476,0,0,1-9.206,9.719,30.824,30.824,0,0,1-11.685,5.32q-1.418-.425-2.549-3.547a18.929,18.929,0,0,1-1.133-6.526,28.566,28.566,0,0,1,.85-6.456,52.865,52.865,0,0,1,2.407-7.519,67.532,67.532,0,0,1,3.683-7.733,64.931,64.931,0,0,1,4.532-7.093,57.968,57.968,0,0,1,8.427-8.651Zm33.282,49.516q1.913,2.836,6.444,4.256,2.264-2.979,3.966-5.6t3.47-5.179q1.768-2.553,3.753-5.391t4.674-6.527q1.273-1.7,3.257-4.114t3.966-4.753a55.726,55.726,0,0,1,3.824-4.115,13.726,13.726,0,0,1,2.974-2.341q-.143,1.139-.283,2.271a27.1,27.1,0,0,1-.5,2.7q-.356,1.563-.85,3.689t-1.345,5.25a50.8,50.8,0,0,0-1.2,6.455,62.878,62.878,0,0,0-.354,7.165,9.86,9.86,0,0,0,2.124,6.526,6.7,6.7,0,0,0,5.382,2.554q1.414,0,4.037-1.986a67.1,67.1,0,0,0,5.665-4.9q3.043-2.906,6.232-6.314t5.877-6.242q6.513-6.949,11.331-12.84a79.655,79.655,0,0,0,8.073-11.776,63.307,63.307,0,0,0,5.169-12.131,69.724,69.724,0,0,0,2.62-14.188,5.424,5.424,0,0,0-3.116-.709,20.641,20.641,0,0,0-5.311.78q-2.9.781-3.753,1.916-1.275,6.952-2.408,11.988t-2.478,9.152a60.415,60.415,0,0,1-3.116,7.732,72.972,72.972,0,0,1-4.461,7.732,81.8,81.8,0,0,1-4.887,6.952q-2.762,3.549-5.24,6.527t-4.461,4.966a15.973,15.973,0,0,1-2.55,2.27q.99-5.107,2.266-12.557t2.833-14.968a142.7,142.7,0,0,1,3.541-13.833,31.278,31.278,0,0,1,4.249-9.293,2.059,2.059,0,0,0-1.133-1.419,11.7,11.7,0,0,0-2.408-.993,15.239,15.239,0,0,0-3.045-.568q-1.63-.14-3.045-.141a12.689,12.689,0,0,0-2.408.141A16.665,16.665,0,0,0,406.078,368q-1.206,3.4-2.054,5.959a37.146,37.146,0,0,1-2.691,6.03,32.224,32.224,0,0,1-5.948,6.881,81.681,81.681,0,0,0-7.436,8.016q-4.179,5.039-8.852,11.28.851-5.249,1.629-11.28a95.959,95.959,0,0,1,2.266-11.776,56.242,56.242,0,0,1,3.966-10.783,25.32,25.32,0,0,1,6.585-8.441q-.567-1.56-3.611-2.554a19.8,19.8,0,0,0-6.161-.993,13.706,13.706,0,0,0-9.7,3.618,21.431,21.431,0,0,0-5.736,10.286q-1.418,4.968-2.761,11.208t-2.408,12.2q-1.062,5.958-1.7,11.066a68.571,68.571,0,0,0-.637,7.946,12.149,12.149,0,0,0,1.91,6.949ZM495.021,371.9q-1.773,3.478-3.612,6.881T487.8,385.3q-1.772,3.123-3.186,5.675-7.649,12.914-13.03,19.083t-9.489,7.023q-1.986-.7-1.983-3.4a36.673,36.673,0,0,1,3.116-14.013,65.961,65.961,0,0,1,8-14.083,57.476,57.476,0,0,1,10.9-11.253q6.018-4.67,11.685-5.52a7.515,7.515,0,0,0-1.275-3.044,23,23,0,0,0-2.762-3.467,24.813,24.813,0,0,0-3.4-2.971,11.228,11.228,0,0,0-3.187-1.7q-5.808,0-12.038,5.059A62.029,62.029,0,0,0,459.613,375.3a75.487,75.487,0,0,0-8.71,16.385,46.817,46.817,0,0,0-3.4,16.811q0,7.408,3.257,12.181a9.889,9.889,0,0,0,8.5,4.773,18.2,18.2,0,0,0,7.152-3.319A44.514,44.514,0,0,0,474.13,415a88.634,88.634,0,0,0,14.021-22.322q-5.383,14.046-5.381,22.133,0,10.5,7.648,10.5a19.164,19.164,0,0,0,4.815-.709,14.7,14.7,0,0,0,4.391-1.845A6.342,6.342,0,0,1,496.791,419a21.725,21.725,0,0,1-.85-6.6,45.438,45.438,0,0,1,.921-8.371,98.056,98.056,0,0,1,2.62-10.357q1.7-5.534,4.107-11.563t5.24-11.989a2.259,2.259,0,0,0-1.062-1.56,14.8,14.8,0,0,0-2.62-1.632,17.85,17.85,0,0,0-3.47-1.277,13.553,13.553,0,0,0-3.328-.5Q496.789,368.422,495.021,371.9ZM533.4,361.33a148.335,148.335,0,0,0-9.843,19.579q-2.41,5.534-4.391,11.067t-3.328,10.57q-1.347,5.037-2.124,9.151a37.917,37.917,0,0,0-.779,6.81,30,30,0,0,0,2.124,6.314,10.426,10.426,0,0,0,4.391,4.753,15.992,15.992,0,0,0,4.036-4.044q2.337-3.052,5.453-7.449,5.523-7.66,10.835-13.9a171.787,171.787,0,0,1,11.967-12.627,36.463,36.463,0,0,1,7.648-6.1,28.626,28.626,0,0,1,3.824-1.986q-2.409,5.676-3.965,9.719t-2.408,6.952a34.7,34.7,0,0,0-1.133,5.036,28.807,28.807,0,0,0,.283,9.719,11.7,11.7,0,0,0,2.054,4.753,10.418,10.418,0,0,0,4.107,3.192,16.173,16.173,0,0,0,6.728,1.206,9,9,0,0,0,2.9-.567,28.224,28.224,0,0,0,3.328-1.419,36.63,36.63,0,0,0,3.258-1.844,22.109,22.109,0,0,0,2.691-1.987,4.689,4.689,0,0,0-.354-1.631,2.125,2.125,0,0,0-.921-1.206,7.555,7.555,0,0,0-2.691.709,8.428,8.428,0,0,1-3.257.709,3.393,3.393,0,0,1-2.621-.993q-.923-.99-.92-4.54a35.539,35.539,0,0,1,1.558-9.789,78.915,78.915,0,0,1,3.9-10.57q2.337-5.178,4.815-9.648a55.857,55.857,0,0,1,4.461-7.023,11.736,11.736,0,0,1,3.045-2.767,1.7,1.7,0,0,0,1.063-.78,21.68,21.68,0,0,0-3.9-5.179,8.364,8.364,0,0,0-6.161-2.483,15.416,15.416,0,0,0-7.506,2.341,57.666,57.666,0,0,0-8.144,5.676,99.617,99.617,0,0,0-7.719,7.093q-3.684,3.762-6.373,6.6-1.275,1.276-3.541,3.9t-4.886,5.818q-2.624,3.192-5.382,6.384t-5.028,5.6a26.619,26.619,0,0,1,3.045-8.3q2.619-5.034,5.878-10.641t6.515-11a68.673,68.673,0,0,0,4.815-9.222,26.284,26.284,0,0,0-4.815-8.584,15.04,15.04,0,0,0-6.94-5.037q-1.137.568-5.6,7.662Z" transform="translate(0.183 -304.289)" opacity="0.5" fill="#ffffff"/>
</svg>